<?xml version="1.0" encoding="iso-8859-1"?>
<!-- Generator: Adobe Illustrator 16.0.0, SVG Export Plug-In . SVG Version: 6.00 Build 0)  -->
<!DOCTYPE svg PUBLIC "-//W3C//DTD SVG 1.1//EN" "http://www.w3.org/Graphics/SVG/1.1/DTD/svg11.dtd">
<svg xmlns="http://www.w3.org/2000/svg" xmlns:xlink="http://www.w3.org/1999/xlink" version="1.1" id="Capa_1" x="0px" y="0px" width="512px" height="512px" viewBox="0 0 198.525 198.525" style="enable-background:new 0 0 198.525 198.525;" xml:space="preserve">
<g>
	<path d="M99.276,83.102c-7.718,0-13.999,6.278-13.999,13.999c0,7.721,6.281,13.999,13.999,13.999   c7.727,0,14.005-6.278,14.005-13.999C113.281,89.386,107.003,83.102,99.276,83.102z M99.276,101.74   c-2.563,0-4.646-2.082-4.646-4.646c0-2.558,2.083-4.646,4.646-4.646s4.651,2.083,4.651,4.646   C103.928,99.652,101.846,101.74,99.276,101.74z M160.637,150.795c0,2.582-2.095,4.676-4.677,4.676H42.604   c-2.582,0-4.677-2.094-4.677-4.676s2.095-4.677,4.677-4.677H155.96C158.542,146.118,160.637,148.213,160.637,150.795z    M197.141,67.404c-1.534-1.546-3.958-1.809-5.809-0.633l-31.231,19.82l-7.728-16.739c-1.09-2.351-3.872-3.361-6.198-2.29   l-19.474,8.951c-0.688,0.317-1.224,0.816-1.674,1.382l-21.86-32.882c-1.747-2.612-6.062-2.612-7.794,0l-21.86,32.882   c-0.438-0.566-0.974-1.06-1.677-1.382l-19.473-8.951c-2.326-1.053-5.112-0.061-6.199,2.29l-7.895,17.074L7.223,66.795   c-1.827-1.188-4.25-0.95-5.821,0.597c-1.574,1.541-1.854,3.964-0.682,5.827l38.292,60.752c0.868,1.369,2.351,2.191,3.961,2.191   h112.573c1.62,0,3.105-0.822,3.97-2.191l38.283-60.752C198.974,71.35,198.7,68.944,197.141,67.404z M130.611,85.008l15.223-7.009   l6.309,13.634l-12.629,8.019l-9.627-14.474C130.13,85.105,130.367,85.111,130.611,85.008z M52.718,77.999l15.226,7.009   c0.231,0.104,0.481,0.104,0.722,0.17l-9.962,14.985L46.2,92.059L52.718,77.999z M20.001,86.213l33.533,21.751l-10.175,15.308   L20.001,86.213z M52.243,126.797l9.134-13.742l21.175,13.742H52.243z M66.559,105.26l32.717-49.23l32.333,48.646l-33.338,21.159   L66.559,105.26z M136.791,112.47l9.523,14.321h-32.09L136.791,112.47z M155.205,123.271l-10.51-15.819l34.13-21.659   L155.205,123.271z" fill="#D80027"/>
</g>
<g>
</g>
<g>
</g>
<g>
</g>
<g>
</g>
<g>
</g>
<g>
</g>
<g>
</g>
<g>
</g>
<g>
</g>
<g>
</g>
<g>
</g>
<g>
</g>
<g>
</g>
<g>
</g>
<g>
</g>
</svg>
